<svg width="136" height="25" viewBox="0 0 136 25" fill="none" xmlns="http://www.w3.org/2000/svg">
<path d="M22.3502 11.4294C22.3596 10.6658 22.1307 9.89989 21.6917 9.27407C21.0192 8.27696 19.84 7.63947 18.635 7.63947C18.5813 7.63947 18.5276 7.63946 18.4716 7.6418C17.4721 7.65114 16.5217 8.12518 15.8282 8.83039C15.1276 8.10883 14.1492 7.63947 13.1358 7.63947C13.1054 7.63947 13.0774 7.63947 13.047 7.63947H12.9793C12.559 7.63947 12.1433 7.72353 11.751 7.87531C11.34 8.0341 10.9571 8.26528 10.6208 8.54784H10.5975C10.5297 8.54784 10.462 8.5455 10.392 8.5455C10.1982 8.5455 10.0043 8.55484 9.81986 8.61555C9.19171 8.8047 8.73168 9.44453 8.77839 10.103C8.76671 10.5397 9.01891 10.9203 9.30846 11.2262C9.30613 14.2129 9.3108 17.1972 9.30613 20.1839C9.3108 20.4314 9.25475 20.6742 9.15201 20.8937C9.07028 21.0712 8.96053 21.2323 8.82509 21.3748C8.78306 21.4192 8.73869 21.4635 8.68965 21.5032C8.4468 21.711 8.1479 21.8582 7.82565 21.9025C7.81164 21.9049 7.79529 21.9072 7.78128 21.9095C7.77194 21.9119 7.7626 21.9119 7.75559 21.9142C7.68787 21.9235 7.62249 21.9282 7.55711 21.9282C7.3773 21.9282 7.19983 21.8955 7.02936 21.8348C6.99667 21.8255 6.96398 21.8115 6.93129 21.7998C6.89392 21.7858 6.85656 21.7671 6.82154 21.7484C6.57168 21.6246 6.34983 21.4448 6.1747 21.2323C6.11399 21.237 6.05094 21.2393 5.99022 21.244C5.8291 21.2557 5.66797 21.2744 5.53487 21.3701C5.51152 21.3841 5.48817 21.3981 5.46715 21.4168C5.45314 21.4238 5.44146 21.4332 5.42979 21.4448C5.41578 21.4542 5.4041 21.4635 5.39243 21.4752C5.00246 21.8161 4.92306 22.4303 5.0982 22.9066C5.28501 23.4928 5.81509 23.9038 6.38486 24.0836C6.76316 24.2073 7.1648 24.268 7.56411 24.268C8.21328 24.268 8.86245 24.1069 9.42288 23.78C9.49527 23.7403 9.56767 23.6959 9.63539 23.6516C9.66341 23.6329 9.69143 23.6142 9.71945 23.5955C9.79884 23.5395 9.87591 23.4811 9.95063 23.4204C10.0884 23.3059 10.2192 23.1845 10.3383 23.0514C10.4013 22.9837 10.462 22.9113 10.5204 22.8366C10.5835 22.7572 10.6418 22.6731 10.6979 22.5891C10.7072 22.5727 10.7189 22.5564 10.7282 22.54C10.7983 22.4279 10.8637 22.3112 10.9244 22.1921C11.235 21.5756 11.3821 20.8751 11.326 20.1839C11.3214 17.4261 11.3284 14.6659 11.3214 11.9081C11.319 11.4201 11.4451 10.911 11.7931 10.5514C12.1153 10.1801 12.5987 9.98629 13.0821 9.98629C13.3833 9.98629 13.6892 10.0633 13.9507 10.2221C14.4738 10.528 14.8147 11.1165 14.8147 11.7236C14.8241 14.2783 14.8124 16.8329 14.8217 19.3876C14.8101 19.9247 15.2864 20.4104 15.8165 20.4104C15.8796 20.4104 15.9426 20.4034 16.0033 20.3894C16.5054 20.3216 16.8743 19.8313 16.8393 19.3339C16.8463 16.861 16.8393 14.3857 16.8416 11.9104C16.8463 11.4691 16.9304 11.0044 17.2223 10.6588C17.5445 10.2338 18.0746 9.98629 18.6023 9.98629C18.7658 9.98629 18.9269 10.0096 19.0834 10.0587C19.8096 10.2548 20.335 10.9741 20.335 11.7213C20.349 14.2853 20.3327 16.8516 20.342 19.4156C20.3374 19.9433 20.8067 20.408 21.3321 20.4104C21.3415 20.4104 21.3531 20.4104 21.3648 20.4104C21.8832 20.4104 22.3573 19.9597 22.3502 19.4343C22.3573 16.7652 22.3456 14.0985 22.3502 11.4294ZM10.3032 11.1048H10.2892C10.2729 11.1048 10.2565 11.1072 10.2379 11.1072C9.60269 11.1072 9.06561 10.4276 9.24308 9.80882C9.3178 9.46321 9.58401 9.17132 9.9156 9.05456C10.0277 9.01019 10.1444 8.98918 10.2612 8.98918C10.8006 8.98918 11.3284 9.43986 11.3167 10.0026C11.3704 10.5724 10.873 11.1048 10.3032 11.1048Z" fill="#2F3082"/>
<path d="M15.4452 1.61471C13.834 1.61471 12.2974 1.94397 10.9034 2.54176L11.0785 3.64862C12.4095 3.03915 13.8877 2.69822 15.4452 2.69822C21.2434 2.69822 25.9604 7.41521 25.9604 13.2134C25.9604 19.0115 21.2434 23.7285 15.4452 23.7285C14.0465 23.7285 12.7084 23.453 11.4871 22.9556C11.4778 22.9743 11.4661 22.9906 11.4545 23.0093L11.4358 23.0373L11.4218 23.056L11.4171 23.063L11.4124 23.07C11.3424 23.1751 11.27 23.2779 11.1953 23.3713C11.1229 23.4647 11.0481 23.5557 10.9687 23.6398C10.908 23.7052 10.845 23.7706 10.7819 23.8336C12.2087 24.4618 13.7849 24.812 15.4429 24.812C21.8388 24.812 27.0439 19.6093 27.0439 13.211C27.0439 6.81274 21.8412 1.61471 15.4452 1.61471Z" fill="#2F3082"/>
<path d="M8.17125 20.8026C7.34228 21.6877 6.30781 20.3543 6.30781 20.3543C4.78529 18.4091 3.86992 15.9689 3.84657 13.3185L4.93007 13.1107C4.93007 13.1457 4.93007 13.1784 4.93007 13.2134C4.93007 16.1931 6.1747 18.8855 8.17125 20.8026Z" fill="#2F3082"/>
<path d="M1.98545 7.60907C1.57213 8.96112 1.50441 10.4136 1.77763 11.7983C1.2709 11.8987 0.759501 11.9851 0.25044 12.0832C0.229424 12.0855 0.189727 12.1019 0.189727 12.0669C-0.116177 10.4953 -0.0531307 8.8537 0.385877 7.31484C1.06073 4.92132 2.62762 2.79167 4.71991 1.44662C5.80342 0.746078 7.02236 0.258034 8.28567 0.00583843C8.30669 0.00350329 8.34872 -0.0128439 8.35106 0.0221833C8.43979 0.461191 8.52386 0.902533 8.61259 1.34154C8.62661 1.4186 8.64762 1.498 8.65463 1.57739C7.83733 1.74085 7.03871 2.01406 6.3008 2.4017C5.51386 2.81035 4.78996 3.3451 4.16414 3.97325C3.15302 4.9797 2.39877 6.24068 1.98545 7.60907Z" fill="#2F3082"/>
<path d="M9.26643 4.64345C8.85778 4.72751 8.45614 4.85127 8.07318 5.0194C7.79529 5.14317 7.52675 5.28795 7.27222 5.45374C6.34283 6.06088 5.60259 6.9529 5.17526 7.97803C4.82265 8.81401 4.68488 9.73406 4.76895 10.6378C4.78529 10.8363 4.81565 11.0371 4.85535 11.2332C4.78763 11.2449 4.71991 11.2589 4.64985 11.2706C4.27623 11.3406 3.90027 11.4084 3.52665 11.4784C3.44025 11.4948 3.35618 11.5088 3.27212 11.5251C2.96154 10.0003 3.17171 8.37734 3.85824 6.98092C4.35329 5.96514 5.08886 5.06844 5.99023 4.38658C6.82854 3.75142 7.8093 3.30541 8.8391 3.09057C8.87646 3.08357 8.91383 3.07656 8.95352 3.06722C9.02825 3.43384 9.10064 3.80046 9.17303 4.16708C9.20339 4.32587 9.23374 4.48466 9.26643 4.64345Z" fill="#2F3082"/>
<path d="M9.86188 7.66742C9.47192 7.74682 9.09596 7.90794 8.78305 8.15547C8.16657 8.63184 7.79762 9.40944 7.82564 10.1894C7.82797 10.3528 7.856 10.514 7.88402 10.6728C7.35628 10.7708 6.83087 10.8689 6.30079 10.9623C6.17002 10.3505 6.1817 9.70834 6.33815 9.10353C6.56699 8.20684 7.11108 7.39187 7.85133 6.83611C8.34871 6.46015 8.93483 6.20796 9.54431 6.0912C9.65873 6.61427 9.7568 7.14201 9.86188 7.66742Z" fill="#2F3082"/>
<path d="M43.5673 13.0992C43.5673 15.9472 41.7589 18.0265 38.7199 18.0265C35.903 18.0265 33.8859 16.3426 33.8859 13.228H35.9341C35.9341 15.1163 36.8449 16.076 38.7199 16.076C40.6082 16.076 41.4879 14.7698 41.4879 13.0992V8.72278H38.169V6.78561C39.964 6.78561 41.7589 6.78561 43.5673 6.78561V13.0992Z" fill="#2F3082"/>
<path d="M46.8595 14.6098C46.984 15.5695 47.8192 16.2626 49.1744 16.2626C49.8808 16.2626 50.8094 15.996 51.2537 15.5384L52.48 16.7513C51.6625 17.6 50.3251 18.0087 49.1433 18.0087C46.4686 18.0087 44.8779 16.3559 44.8779 13.8678C44.8779 11.5086 46.4819 9.80686 49.0011 9.80686C51.6003 9.80686 53.2175 11.4108 52.9199 14.6053H46.8595V14.6098ZM51.076 13.0192C50.9516 12.0106 50.1652 11.5085 49.0633 11.5085C48.0236 11.5085 47.175 12.0106 46.8906 13.0192H51.076Z" fill="#2F3082"/>
<path d="M56.772 7.85637V10.0601H58.9135V11.7129H56.7587V15.0674C56.7587 15.8094 57.1674 16.1693 57.7672 16.1693C58.0649 16.1693 58.4115 16.076 58.6958 15.9338L59.229 17.5689C58.678 17.791 58.2204 17.8843 57.6384 17.8977C55.9545 17.9599 54.8526 17.0002 54.8526 15.063V11.7085H53.4042V10.0557H54.8526V8.05631L56.772 7.85637Z" fill="#2F3082"/>
<path d="M62.2636 6.78561V11.0998C62.9567 10.2023 63.8054 9.93574 64.6895 9.93574C66.8933 9.93574 67.8707 11.433 67.8707 13.7123V17.8044H65.9513V13.7257C65.9513 12.3083 65.2094 11.713 64.1875 11.713C63.0545 11.713 62.2681 12.6727 62.2681 13.8367V17.8044H60.3487V6.78561H62.2636Z" fill="#2F3082"/>
<path d="M71.2652 10.0423L71.4074 10.9398C72.0072 9.98012 72.807 9.83795 73.5934 9.83795C74.3976 9.83795 75.1662 10.1534 75.5927 10.5799L74.7263 12.2505C74.3309 11.9217 73.971 11.7485 73.3401 11.7485C72.3315 11.7485 71.4029 12.2816 71.4029 13.7167V17.8088H69.4836V10.0512H71.2652V10.0423Z" fill="#2F3082"/>
<path d="M84.0301 13.93C84.0301 16.1649 82.5017 17.9732 79.9869 17.9732C77.4721 17.9732 75.9571 16.1649 75.9571 13.93C75.9571 11.713 77.4988 9.88686 79.9691 9.88686C82.4395 9.88686 84.0301 11.713 84.0301 13.93ZM77.8765 13.93C77.8765 15.1119 78.5829 16.2138 79.9869 16.2138C81.3865 16.2138 82.0974 15.1119 82.0974 13.93C82.0974 12.766 81.2798 11.633 79.9869 11.633C78.6007 11.633 77.8765 12.766 77.8765 13.93Z" fill="#2F3082"/>
<path d="M98.2745 9.82462L94.6845 14.6098H94.2758L90.7657 9.81129V17.8221H88.6864V6.80335H91.0768L94.5246 11.5396L97.9724 6.80335H100.349V17.8221H98.2745V9.82462Z" fill="#2F3082"/>
<path d="M109.871 13.93C109.871 16.1649 108.342 17.9732 105.828 17.9732C103.308 17.9732 101.798 16.1649 101.798 13.93C101.798 11.713 103.34 9.88686 105.81 9.88686C108.28 9.88686 109.871 11.713 109.871 13.93ZM103.717 13.93C103.717 15.1119 104.424 16.2138 105.828 16.2138C107.227 16.2138 107.938 15.1119 107.938 13.93C107.938 12.766 107.121 11.633 105.828 11.633C104.441 11.633 103.717 12.766 103.717 13.93Z" fill="#2F3082"/>
<path d="M113.114 6.80335V11.0998C113.572 10.2956 114.847 9.85572 115.665 9.85572C117.931 9.85572 119.614 11.2419 119.614 13.9167C119.614 16.467 117.899 17.9776 115.616 17.9776C114.669 17.9776 113.71 17.6622 113.114 16.7336L112.99 17.8043H111.195V6.80335H113.114ZM113.239 13.9167C113.239 15.3162 114.278 16.2004 115.491 16.2004C116.718 16.2004 117.695 15.2718 117.695 13.9167C117.695 12.5171 116.718 11.6507 115.491 11.6507C114.278 11.6507 113.239 12.5615 113.239 13.9167Z" fill="#2F3082"/>
<path d="M123.124 7.85637C123.124 9.35368 120.858 9.35368 120.858 7.85637C120.858 6.35906 123.124 6.35906 123.124 7.85637ZM121.032 10.0112V17.8043H122.951V10.0112H121.032Z" fill="#2F3082"/>
<path d="M126.586 6.80335V17.8043H124.68V6.80335H126.586Z" fill="#2F3082"/>
<path d="M129.905 14.6098C130.029 15.5695 130.864 16.2626 132.219 16.2626C132.926 16.2626 133.854 15.996 134.299 15.5384L135.525 16.7513C134.707 17.6 133.37 18.0087 132.188 18.0087C129.514 18.0087 127.923 16.3559 127.923 13.8678C127.923 11.5086 129.527 9.80686 132.046 9.80686C134.641 9.80686 136.263 11.4108 135.965 14.6053H129.905V14.6098ZM134.125 13.0192C134.001 12.0106 133.215 11.5085 132.113 11.5085C131.073 11.5085 130.224 12.0106 129.94 13.0192H134.125Z" fill="#2F3082"/>
</svg>
